<?xml version="1.0" encoding="utf-8" standalone="no"?>
<!DOCTYPE svg PUBLIC "-//W3C//DTD SVG 1.1//EN"
  "http://www.w3.org/Graphics/SVG/1.1/DTD/svg11.dtd">
<svg xmlns:xlink="http://www.w3.org/1999/xlink" width="504pt" height="360pt" viewBox="0 0 504 360" xmlns="http://www.w3.org/2000/svg" version="1.1">
 <metadata>
  <rdf:RDF xmlns:dc="http://purl.org/dc/elements/1.1/" xmlns:cc="http://creativecommons.org/ns#" xmlns:rdf="http://www.w3.org/1999/02/22-rdf-syntax-ns#">
   <cc:Work>
    <dc:type rdf:resource="http://purl.org/dc/dcmitype/StillImage"/>
    <dc:date>2024-12-01T22:58:15.851110</dc:date>
    <dc:format>image/svg+xml</dc:format>
    <dc:creator>
     <cc:Agent>
      <dc:title>Matplotlib v3.6.2, https://matplotlib.org/</dc:title>
     </cc:Agent>
    </dc:creator>
   </cc:Work>
  </rdf:RDF>
 </metadata>
 <defs>
  <style type="text/css">*{stroke-linejoin: round; stroke-linecap: butt}</style>
 </defs>
 <g id="figure_1">
  <g id="patch_1">
   <path d="M 0 360 
L 504 360 
L 504 0 
L 0 0 
z
" style="fill: #ffffff"/>
  </g>
  <g id="axes_1">
   <g id="patch_2">
    <path d="M 63 320.4 
L 453.6 320.4 
L 453.6 43.2 
L 63 43.2 
z
" style="fill: #ffffff"/>
   </g>
   <g id="matplotlib.axis_1">
    <g id="xtick_1">
     <g id="line2d_1">
      <path d="M 80.754545 320.4 
L 80.754545 43.2 
" clip-path="url(#p05a324f5cb)" style="fill: none; stroke: #b0b0b0; stroke-width: 0.8; stroke-linecap: square"/>
     </g>
     <g id="line2d_2">
      <defs>
       <path id="m3f5ba4727b" d="M 0 0 
L 0 3.5 
" style="stroke: #000000; stroke-width: 0.8"/>
      </defs>
      <g>
       <use xlink:href="#m3f5ba4727b" x="80.754545" y="320.4" style="stroke: #000000; stroke-width: 0.8"/>
      </g>
     </g>
     <g id="text_1">
      <!-- 0.0 -->
      <g transform="translate(72.802983 334.998438) scale(0.1 -0.1)">
       <defs>
        <path id="DejaVuSans-30" d="M 2034 4250 
Q 1547 4250 1301 3770 
Q 1056 3291 1056 2328 
Q 1056 1369 1301 889 
Q 1547 409 2034 409 
Q 2525 409 2770 889 
Q 3016 1369 3016 2328 
Q 3016 3291 2770 3770 
Q 2525 4250 2034 4250 
z
M 2034 4750 
Q 2819 4750 3233 4129 
Q 3647 3509 3647 2328 
Q 3647 1150 3233 529 
Q 2819 -91 2034 -91 
Q 1250 -91 836 529 
Q 422 1150 422 2328 
Q 422 3509 836 4129 
Q 1250 4750 2034 4750 
z
" transform="scale(0.015625)"/>
        <path id="DejaVuSans-2e" d="M 684 794 
L 1344 794 
L 1344 0 
L 684 0 
L 684 794 
z
" transform="scale(0.015625)"/>
       </defs>
       <use xlink:href="#DejaVuSans-30"/>
       <use xlink:href="#DejaVuSans-2e" x="63.623047"/>
       <use xlink:href="#DejaVuSans-30" x="95.410156"/>
      </g>
     </g>
    </g>
    <g id="xtick_2">
     <g id="line2d_3">
      <path d="M 139.936364 320.4 
L 139.936364 43.2 
" clip-path="url(#p05a324f5cb)" style="fill: none; stroke: #b0b0b0; stroke-width: 0.8; stroke-linecap: square"/>
     </g>
     <g id="line2d_4">
      <g>
       <use xlink:href="#m3f5ba4727b" x="139.936364" y="320.4" style="stroke: #000000; stroke-width: 0.8"/>
      </g>
     </g>
     <g id="text_2">
      <!-- 0.5 -->
      <g transform="translate(131.984801 334.998438) scale(0.1 -0.1)">
       <defs>
        <path id="DejaVuSans-35" d="M 691 4666 
L 3169 4666 
L 3169 4134 
L 1269 4134 
L 1269 2991 
Q 1406 3038 1543 3061 
Q 1681 3084 1819 3084 
Q 2600 3084 3056 2656 
Q 3513 2228 3513 1497 
Q 3513 744 3044 326 
Q 2575 -91 1722 -91 
Q 1428 -91 1123 -41 
Q 819 9 494 109 
L 494 744 
Q 775 591 1075 516 
Q 1375 441 1709 441 
Q 2250 441 2565 725 
Q 2881 1009 2881 1497 
Q 2881 1984 2565 2268 
Q 2250 2553 1709 2553 
Q 1456 2553 1204 2497 
Q 953 2441 691 2322 
L 691 4666 
z
" transform="scale(0.015625)"/>
       </defs>
       <use xlink:href="#DejaVuSans-30"/>
       <use xlink:href="#DejaVuSans-2e" x="63.623047"/>
       <use xlink:href="#DejaVuSans-35" x="95.410156"/>
      </g>
     </g>
    </g>
    <g id="xtick_3">
     <g id="line2d_5">
      <path d="M 199.118182 320.4 
L 199.118182 43.2 
" clip-path="url(#p05a324f5cb)" style="fill: none; stroke: #b0b0b0; stroke-width: 0.8; stroke-linecap: square"/>
     </g>
     <g id="line2d_6">
      <g>
       <use xlink:href="#m3f5ba4727b" x="199.118182" y="320.4" style="stroke: #000000; stroke-width: 0.8"/>
      </g>
     </g>
     <g id="text_3">
      <!-- 1.0 -->
      <g transform="translate(191.166619 334.998438) scale(0.1 -0.1)">
       <defs>
        <path id="DejaVuSans-31" d="M 794 531 
L 1825 531 
L 1825 4091 
L 703 3866 
L 703 4441 
L 1819 4666 
L 2450 4666 
L 2450 531 
L 3481 531 
L 3481 0 
L 794 0 
L 794 531 
z
" transform="scale(0.015625)"/>
       </defs>
       <use xlink:href="#DejaVuSans-31"/>
       <use xlink:href="#DejaVuSans-2e" x="63.623047"/>
       <use xlink:href="#DejaVuSans-30" x="95.410156"/>
      </g>
     </g>
    </g>
    <g id="xtick_4">
     <g id="line2d_7">
      <path d="M 258.3 320.4 
L 258.3 43.2 
" clip-path="url(#p05a324f5cb)" style="fill: none; stroke: #b0b0b0; stroke-width: 0.8; stroke-linecap: square"/>
     </g>
     <g id="line2d_8">
      <g>
       <use xlink:href="#m3f5ba4727b" x="258.3" y="320.4" style="stroke: #000000; stroke-width: 0.8"/>
      </g>
     </g>
     <g id="text_4">
      <!-- 1.5 -->
      <g transform="translate(250.348438 334.998438) scale(0.1 -0.1)">
       <use xlink:href="#DejaVuSans-31"/>
       <use xlink:href="#DejaVuSans-2e" x="63.623047"/>
       <use xlink:href="#DejaVuSans-35" x="95.410156"/>
      </g>
     </g>
    </g>
    <g id="xtick_5">
     <g id="line2d_9">
      <path d="M 317.481818 320.4 
L 317.481818 43.2 
" clip-path="url(#p05a324f5cb)" style="fill: none; stroke: #b0b0b0; stroke-width: 0.8; stroke-linecap: square"/>
     </g>
     <g id="line2d_10">
      <g>
       <use xlink:href="#m3f5ba4727b" x="317.481818" y="320.4" style="stroke: #000000; stroke-width: 0.8"/>
      </g>
     </g>
     <g id="text_5">
      <!-- 2.0 -->
      <g transform="translate(309.530256 334.998438) scale(0.1 -0.1)">
       <defs>
        <path id="DejaVuSans-32" d="M 1228 531 
L 3431 531 
L 3431 0 
L 469 0 
L 469 531 
Q 828 903 1448 1529 
Q 2069 2156 2228 2338 
Q 2531 2678 2651 2914 
Q 2772 3150 2772 3378 
Q 2772 3750 2511 3984 
Q 2250 4219 1831 4219 
Q 1534 4219 1204 4116 
Q 875 4013 500 3803 
L 500 4441 
Q 881 4594 1212 4672 
Q 1544 4750 1819 4750 
Q 2544 4750 2975 4387 
Q 3406 4025 3406 3419 
Q 3406 3131 3298 2873 
Q 3191 2616 2906 2266 
Q 2828 2175 2409 1742 
Q 1991 1309 1228 531 
z
" transform="scale(0.015625)"/>
       </defs>
       <use xlink:href="#DejaVuSans-32"/>
       <use xlink:href="#DejaVuSans-2e" x="63.623047"/>
       <use xlink:href="#DejaVuSans-30" x="95.410156"/>
      </g>
     </g>
    </g>
    <g id="xtick_6">
     <g id="line2d_11">
      <path d="M 376.663636 320.4 
L 376.663636 43.2 
" clip-path="url(#p05a324f5cb)" style="fill: none; stroke: #b0b0b0; stroke-width: 0.8; stroke-linecap: square"/>
     </g>
     <g id="line2d_12">
      <g>
       <use xlink:href="#m3f5ba4727b" x="376.663636" y="320.4" style="stroke: #000000; stroke-width: 0.8"/>
      </g>
     </g>
     <g id="text_6">
      <!-- 2.5 -->
      <g transform="translate(368.712074 334.998438) scale(0.1 -0.1)">
       <use xlink:href="#DejaVuSans-32"/>
       <use xlink:href="#DejaVuSans-2e" x="63.623047"/>
       <use xlink:href="#DejaVuSans-35" x="95.410156"/>
      </g>
     </g>
    </g>
    <g id="xtick_7">
     <g id="line2d_13">
      <path d="M 435.845455 320.4 
L 435.845455 43.2 
" clip-path="url(#p05a324f5cb)" style="fill: none; stroke: #b0b0b0; stroke-width: 0.8; stroke-linecap: square"/>
     </g>
     <g id="line2d_14">
      <g>
       <use xlink:href="#m3f5ba4727b" x="435.845455" y="320.4" style="stroke: #000000; stroke-width: 0.8"/>
      </g>
     </g>
     <g id="text_7">
      <!-- 3.0 -->
      <g transform="translate(427.893892 334.998438) scale(0.1 -0.1)">
       <defs>
        <path id="DejaVuSans-33" d="M 2597 2516 
Q 3050 2419 3304 2112 
Q 3559 1806 3559 1356 
Q 3559 666 3084 287 
Q 2609 -91 1734 -91 
Q 1441 -91 1130 -33 
Q 819 25 488 141 
L 488 750 
Q 750 597 1062 519 
Q 1375 441 1716 441 
Q 2309 441 2620 675 
Q 2931 909 2931 1356 
Q 2931 1769 2642 2001 
Q 2353 2234 1838 2234 
L 1294 2234 
L 1294 2753 
L 1863 2753 
Q 2328 2753 2575 2939 
Q 2822 3125 2822 3475 
Q 2822 3834 2567 4026 
Q 2313 4219 1838 4219 
Q 1578 4219 1281 4162 
Q 984 4106 628 3988 
L 628 4550 
Q 988 4650 1302 4700 
Q 1616 4750 1894 4750 
Q 2613 4750 3031 4423 
Q 3450 4097 3450 3541 
Q 3450 3153 3228 2886 
Q 3006 2619 2597 2516 
z
" transform="scale(0.015625)"/>
       </defs>
       <use xlink:href="#DejaVuSans-33"/>
       <use xlink:href="#DejaVuSans-2e" x="63.623047"/>
       <use xlink:href="#DejaVuSans-30" x="95.410156"/>
      </g>
     </g>
    </g>
    <g id="text_8">
     <!-- Redshift z -->
     <g transform="translate(233.791406 348.676562) scale(0.1 -0.1)">
      <defs>
       <path id="DejaVuSans-52" d="M 2841 2188 
Q 3044 2119 3236 1894 
Q 3428 1669 3622 1275 
L 4263 0 
L 3584 0 
L 2988 1197 
Q 2756 1666 2539 1819 
Q 2322 1972 1947 1972 
L 1259 1972 
L 1259 0 
L 628 0 
L 628 4666 
L 2053 4666 
Q 2853 4666 3247 4331 
Q 3641 3997 3641 3322 
Q 3641 2881 3436 2590 
Q 3231 2300 2841 2188 
z
M 1259 4147 
L 1259 2491 
L 2053 2491 
Q 2509 2491 2742 2702 
Q 2975 2913 2975 3322 
Q 2975 3731 2742 3939 
Q 2509 4147 2053 4147 
L 1259 4147 
z
" transform="scale(0.015625)"/>
       <path id="DejaVuSans-65" d="M 3597 1894 
L 3597 1613 
L 953 1613 
Q 991 1019 1311 708 
Q 1631 397 2203 397 
Q 2534 397 2845 478 
Q 3156 559 3463 722 
L 3463 178 
Q 3153 47 2828 -22 
Q 2503 -91 2169 -91 
Q 1331 -91 842 396 
Q 353 884 353 1716 
Q 353 2575 817 3079 
Q 1281 3584 2069 3584 
Q 2775 3584 3186 3129 
Q 3597 2675 3597 1894 
z
M 3022 2063 
Q 3016 2534 2758 2815 
Q 2500 3097 2075 3097 
Q 1594 3097 1305 2825 
Q 1016 2553 972 2059 
L 3022 2063 
z
" transform="scale(0.015625)"/>
       <path id="DejaVuSans-64" d="M 2906 2969 
L 2906 4863 
L 3481 4863 
L 3481 0 
L 2906 0 
L 2906 525 
Q 2725 213 2448 61 
Q 2172 -91 1784 -91 
Q 1150 -91 751 415 
Q 353 922 353 1747 
Q 353 2572 751 3078 
Q 1150 3584 1784 3584 
Q 2172 3584 2448 3432 
Q 2725 3281 2906 2969 
z
M 947 1747 
Q 947 1113 1208 752 
Q 1469 391 1925 391 
Q 2381 391 2643 752 
Q 2906 1113 2906 1747 
Q 2906 2381 2643 2742 
Q 2381 3103 1925 3103 
Q 1469 3103 1208 2742 
Q 947 2381 947 1747 
z
" transform="scale(0.015625)"/>
       <path id="DejaVuSans-73" d="M 2834 3397 
L 2834 2853 
Q 2591 2978 2328 3040 
Q 2066 3103 1784 3103 
Q 1356 3103 1142 2972 
Q 928 2841 928 2578 
Q 928 2378 1081 2264 
Q 1234 2150 1697 2047 
L 1894 2003 
Q 2506 1872 2764 1633 
Q 3022 1394 3022 966 
Q 3022 478 2636 193 
Q 2250 -91 1575 -91 
Q 1294 -91 989 -36 
Q 684 19 347 128 
L 347 722 
Q 666 556 975 473 
Q 1284 391 1588 391 
Q 1994 391 2212 530 
Q 2431 669 2431 922 
Q 2431 1156 2273 1281 
Q 2116 1406 1581 1522 
L 1381 1569 
Q 847 1681 609 1914 
Q 372 2147 372 2553 
Q 372 3047 722 3315 
Q 1072 3584 1716 3584 
Q 2034 3584 2315 3537 
Q 2597 3491 2834 3397 
z
" transform="scale(0.015625)"/>
       <path id="DejaVuSans-68" d="M 3513 2113 
L 3513 0 
L 2938 0 
L 2938 2094 
Q 2938 2591 2744 2837 
Q 2550 3084 2163 3084 
Q 1697 3084 1428 2787 
Q 1159 2491 1159 1978 
L 1159 0 
L 581 0 
L 581 4863 
L 1159 4863 
L 1159 2956 
Q 1366 3272 1645 3428 
Q 1925 3584 2291 3584 
Q 2894 3584 3203 3211 
Q 3513 2838 3513 2113 
z
" transform="scale(0.015625)"/>
       <path id="DejaVuSans-69" d="M 603 3500 
L 1178 3500 
L 1178 0 
L 603 0 
L 603 3500 
z
M 603 4863 
L 1178 4863 
L 1178 4134 
L 603 4134 
L 603 4863 
z
" transform="scale(0.015625)"/>
       <path id="DejaVuSans-66" d="M 2375 4863 
L 2375 4384 
L 1825 4384 
Q 1516 4384 1395 4259 
Q 1275 4134 1275 3809 
L 1275 3500 
L 2222 3500 
L 2222 3053 
L 1275 3053 
L 1275 0 
L 697 0 
L 697 3053 
L 147 3053 
L 147 3500 
L 697 3500 
L 697 3744 
Q 697 4328 969 4595 
Q 1241 4863 1831 4863 
L 2375 4863 
z
" transform="scale(0.015625)"/>
       <path id="DejaVuSans-74" d="M 1172 4494 
L 1172 3500 
L 2356 3500 
L 2356 3053 
L 1172 3053 
L 1172 1153 
Q 1172 725 1289 603 
Q 1406 481 1766 481 
L 2356 481 
L 2356 0 
L 1766 0 
Q 1100 0 847 248 
Q 594 497 594 1153 
L 594 3053 
L 172 3053 
L 172 3500 
L 594 3500 
L 594 4494 
L 1172 4494 
z
" transform="scale(0.015625)"/>
       <path id="DejaVuSans-20" transform="scale(0.015625)"/>
       <path id="DejaVuSans-7a" d="M 353 3500 
L 3084 3500 
L 3084 2975 
L 922 459 
L 3084 459 
L 3084 0 
L 275 0 
L 275 525 
L 2438 3041 
L 353 3041 
L 353 3500 
z
" transform="scale(0.015625)"/>
      </defs>
      <use xlink:href="#DejaVuSans-52"/>
      <use xlink:href="#DejaVuSans-65" x="64.982422"/>
      <use xlink:href="#DejaVuSans-64" x="126.505859"/>
      <use xlink:href="#DejaVuSans-73" x="189.982422"/>
      <use xlink:href="#DejaVuSans-68" x="242.082031"/>
      <use xlink:href="#DejaVuSans-69" x="305.460938"/>
      <use xlink:href="#DejaVuSans-66" x="333.244141"/>
      <use xlink:href="#DejaVuSans-74" x="366.699219"/>
      <use xlink:href="#DejaVuSans-20" x="405.908203"/>
      <use xlink:href="#DejaVuSans-7a" x="437.695312"/>
     </g>
    </g>
   </g>
   <g id="matplotlib.axis_2">
    <g id="ytick_1">
     <g id="line2d_15">
      <path d="M 63 295.108438 
L 453.6 295.108438 
" clip-path="url(#p05a324f5cb)" style="fill: none; stroke: #b0b0b0; stroke-width: 0.8; stroke-linecap: square"/>
     </g>
     <g id="line2d_16">
      <defs>
       <path id="mb5fd640f29" d="M 0 0 
L -3.5 0 
" style="stroke: #000000; stroke-width: 0.8"/>
      </defs>
      <g>
       <use xlink:href="#mb5fd640f29" x="63" y="295.108438" style="stroke: #000000; stroke-width: 0.8"/>
      </g>
     </g>
     <g id="text_9">
      <!-- 50 -->
      <g transform="translate(43.275 298.907657) scale(0.1 -0.1)">
       <use xlink:href="#DejaVuSans-35"/>
       <use xlink:href="#DejaVuSans-30" x="63.623047"/>
      </g>
     </g>
    </g>
    <g id="ytick_2">
     <g id="line2d_17">
      <path d="M 63 252.803232 
L 453.6 252.803232 
" clip-path="url(#p05a324f5cb)" style="fill: none; stroke: #b0b0b0; stroke-width: 0.8; stroke-linecap: square"/>
     </g>
     <g id="line2d_18">
      <g>
       <use xlink:href="#mb5fd640f29" x="63" y="252.803232" style="stroke: #000000; stroke-width: 0.8"/>
      </g>
     </g>
     <g id="text_10">
      <!-- 100 -->
      <g transform="translate(36.9125 256.602451) scale(0.1 -0.1)">
       <use xlink:href="#DejaVuSans-31"/>
       <use xlink:href="#DejaVuSans-30" x="63.623047"/>
       <use xlink:href="#DejaVuSans-30" x="127.246094"/>
      </g>
     </g>
    </g>
    <g id="ytick_3">
     <g id="line2d_19">
      <path d="M 63 210.498026 
L 453.6 210.498026 
" clip-path="url(#p05a324f5cb)" style="fill: none; stroke: #b0b0b0; stroke-width: 0.8; stroke-linecap: square"/>
     </g>
     <g id="line2d_20">
      <g>
       <use xlink:href="#mb5fd640f29" x="63" y="210.498026" style="stroke: #000000; stroke-width: 0.8"/>
      </g>
     </g>
     <g id="text_11">
      <!-- 150 -->
      <g transform="translate(36.9125 214.297245) scale(0.1 -0.1)">
       <use xlink:href="#DejaVuSans-31"/>
       <use xlink:href="#DejaVuSans-35" x="63.623047"/>
       <use xlink:href="#DejaVuSans-30" x="127.246094"/>
      </g>
     </g>
    </g>
    <g id="ytick_4">
     <g id="line2d_21">
      <path d="M 63 168.19282 
L 453.6 168.19282 
" clip-path="url(#p05a324f5cb)" style="fill: none; stroke: #b0b0b0; stroke-width: 0.8; stroke-linecap: square"/>
     </g>
     <g id="line2d_22">
      <g>
       <use xlink:href="#mb5fd640f29" x="63" y="168.19282" style="stroke: #000000; stroke-width: 0.8"/>
      </g>
     </g>
     <g id="text_12">
      <!-- 200 -->
      <g transform="translate(36.9125 171.992039) scale(0.1 -0.1)">
       <use xlink:href="#DejaVuSans-32"/>
       <use xlink:href="#DejaVuSans-30" x="63.623047"/>
       <use xlink:href="#DejaVuSans-30" x="127.246094"/>
      </g>
     </g>
    </g>
    <g id="ytick_5">
     <g id="line2d_23">
      <path d="M 63 125.887614 
L 453.6 125.887614 
" clip-path="url(#p05a324f5cb)" style="fill: none; stroke: #b0b0b0; stroke-width: 0.8; stroke-linecap: square"/>
     </g>
     <g id="line2d_24">
      <g>
       <use xlink:href="#mb5fd640f29" x="63" y="125.887614" style="stroke: #000000; stroke-width: 0.8"/>
      </g>
     </g>
     <g id="text_13">
      <!-- 250 -->
      <g transform="translate(36.9125 129.686833) scale(0.1 -0.1)">
       <use xlink:href="#DejaVuSans-32"/>
       <use xlink:href="#DejaVuSans-35" x="63.623047"/>
       <use xlink:href="#DejaVuSans-30" x="127.246094"/>
      </g>
     </g>
    </g>
    <g id="ytick_6">
     <g id="line2d_25">
      <path d="M 63 83.582408 
L 453.6 83.582408 
" clip-path="url(#p05a324f5cb)" style="fill: none; stroke: #b0b0b0; stroke-width: 0.8; stroke-linecap: square"/>
     </g>
     <g id="line2d_26">
      <g>
       <use xlink:href="#mb5fd640f29" x="63" y="83.582408" style="stroke: #000000; stroke-width: 0.8"/>
      </g>
     </g>
     <g id="text_14">
      <!-- 300 -->
      <g transform="translate(36.9125 87.381627) scale(0.1 -0.1)">
       <use xlink:href="#DejaVuSans-33"/>
       <use xlink:href="#DejaVuSans-30" x="63.623047"/>
       <use xlink:href="#DejaVuSans-30" x="127.246094"/>
      </g>
     </g>
    </g>
    <g id="text_15">
     <!-- $H(z)$ -->
     <g transform="translate(30.832812 192.1) rotate(-90) scale(0.1 -0.1)">
      <defs>
       <path id="DejaVuSans-Oblique-48" d="M 1081 4666 
L 1716 4666 
L 1344 2753 
L 3634 2753 
L 4006 4666 
L 4641 4666 
L 3731 0 
L 3097 0 
L 3531 2222 
L 1241 2222 
L 806 0 
L 172 0 
L 1081 4666 
z
" transform="scale(0.015625)"/>
       <path id="DejaVuSans-28" d="M 1984 4856 
Q 1566 4138 1362 3434 
Q 1159 2731 1159 2009 
Q 1159 1288 1364 580 
Q 1569 -128 1984 -844 
L 1484 -844 
Q 1016 -109 783 600 
Q 550 1309 550 2009 
Q 550 2706 781 3412 
Q 1013 4119 1484 4856 
L 1984 4856 
z
" transform="scale(0.015625)"/>
       <path id="DejaVuSans-Oblique-7a" d="M 744 3500 
L 3475 3500 
L 3372 2975 
L 738 459 
L 2913 459 
L 2822 0 
L -19 0 
L 84 525 
L 2719 3041 
L 653 3041 
L 744 3500 
z
" transform="scale(0.015625)"/>
       <path id="DejaVuSans-29" d="M 513 4856 
L 1013 4856 
Q 1481 4119 1714 3412 
Q 1947 2706 1947 2009 
Q 1947 1309 1714 600 
Q 1481 -109 1013 -844 
L 513 -844 
Q 928 -128 1133 580 
Q 1338 1288 1338 2009 
Q 1338 2731 1133 3434 
Q 928 4138 513 4856 
z
" transform="scale(0.015625)"/>
      </defs>
      <use xlink:href="#DejaVuSans-Oblique-48" transform="translate(0 0.125)"/>
      <use xlink:href="#DejaVuSans-28" transform="translate(75.195312 0.125)"/>
      <use xlink:href="#DejaVuSans-Oblique-7a" transform="translate(114.208984 0.125)"/>
      <use xlink:href="#DejaVuSans-29" transform="translate(166.699219 0.125)"/>
     </g>
    </g>
   </g>
   <g id="line2d_27">
    <path d="M 80.754545 279.700882 
L 88.001299 279.49236 
L 95.248052 278.762609 
L 102.494805 277.588128 
L 109.741558 276.027567 
L 116.988312 274.13758 
L 124.235065 271.969529 
L 131.481818 269.544372 
L 138.728571 266.912448 
L 145.975325 264.080345 
L 153.222078 261.087512 
L 160.468831 257.936435 
L 167.715584 254.646305 
L 174.962338 251.233297 
L 182.209091 247.705581 
L 189.455844 244.069007 
L 196.702597 240.327434 
L 203.949351 236.491966 
L 211.196104 232.567291 
L 218.442857 228.557593 
L 225.68961 224.466618 
L 232.936364 220.297729 
L 240.183117 216.05395 
L 247.42987 211.738012 
L 254.676623 207.350826 
L 261.923377 202.89367 
L 269.17013 198.370836 
L 276.416883 193.784246 
L 283.663636 189.135645 
L 290.91039 184.426617 
L 298.157143 179.654778 
L 305.403896 174.823158 
L 312.650649 169.935255 
L 319.897403 164.992199 
L 327.144156 159.989915 
L 334.390909 154.933042 
L 341.637662 149.8242 
L 348.884416 144.660441 
L 356.131169 139.443092 
L 363.377922 134.176427 
L 370.624675 128.85625 
L 377.871429 123.485735 
L 385.118182 118.06801 
L 392.364935 112.596287 
L 399.611688 107.078925 
L 406.858442 101.512053 
L 414.105195 95.897304 
L 421.351948 90.236813 
L 428.598701 84.526899 
L 435.845455 78.774171 
" clip-path="url(#p05a324f5cb)" style="fill: none; stroke: #1f77b4; stroke-width: 1.5; stroke-linecap: square"/>
   </g>
   <g id="line2d_28">
    <path d="M 80.754545 279.700882 
L 88.001299 277.628879 
L 95.248052 275.401114 
L 102.494805 273.025512 
L 109.741558 270.508676 
L 116.988312 267.855838 
L 124.235065 265.07514 
L 131.481818 262.169592 
L 138.728571 259.149045 
L 145.975325 256.013473 
L 153.222078 252.774138 
L 160.468831 249.429792 
L 167.715584 245.98655 
L 174.962338 242.450589 
L 182.209091 238.824833 
L 189.455844 235.111098 
L 196.702597 231.309983 
L 203.949351 227.427685 
L 211.196104 223.466528 
L 218.442857 219.428735 
L 225.68961 215.316434 
L 232.936364 211.131671 
L 240.183117 206.876412 
L 247.42987 202.552542 
L 254.676623 198.160183 
L 261.923377 193.69977 
L 269.17013 189.175292 
L 276.416883 184.588396 
L 283.663636 179.940654 
L 290.91039 175.233555 
L 298.157143 170.463508 
L 305.403896 165.633653 
L 312.650649 160.748171 
L 319.897403 155.808313 
L 327.144156 150.807936 
L 334.390909 145.752923 
L 341.637662 140.646774 
L 348.884416 135.484825 
L 356.131169 130.268455 
L 363.377922 125.003861 
L 370.624675 119.684238 
L 377.871429 114.314012 
L 385.118182 108.897966 
L 392.364935 103.424706 
L 399.611688 97.907456 
L 406.858442 92.339594 
L 414.105195 86.723381 
L 421.351948 81.062227 
L 428.598701 75.349383 
L 435.845455 69.596053 
" clip-path="url(#p05a324f5cb)" style="fill: none; stroke: #ff7f0e; stroke-width: 1.5; stroke-linecap: square"/>
   </g>
   <g id="line2d_29">
    <path d="M 80.754545 279.700882 
L 88.001299 276.973223 
L 95.248052 274.154871 
L 102.494805 271.246933 
L 109.741558 268.2507 
L 116.988312 265.165617 
L 124.235065 261.993573 
L 131.481818 258.735957 
L 138.728571 255.394838 
L 145.975325 251.970289 
L 153.222078 248.466299 
L 160.468831 244.881999 
L 167.715584 241.219792 
L 174.962338 237.482491 
L 182.209091 233.671389 
L 189.455844 229.787145 
L 196.702597 225.829606 
L 203.949351 221.802259 
L 211.196104 217.706317 
L 218.442857 213.542983 
L 225.68961 209.313461 
L 232.936364 205.018959 
L 240.183117 200.660688 
L 247.42987 196.239861 
L 254.676623 191.756324 
L 261.923377 187.210112 
L 269.17013 182.604237 
L 276.416883 177.939918 
L 283.663636 173.21836 
L 290.91039 168.440753 
L 298.157143 163.603732 
L 305.403896 158.709824 
L 312.650649 153.762718 
L 319.897403 148.763541 
L 327.144156 143.70637 
L 334.390909 138.596531 
L 341.637662 133.43736 
L 348.884416 128.224247 
L 356.131169 122.958303 
L 363.377922 117.645659 
L 370.624675 112.27939 
L 377.871429 106.863777 
L 385.118182 101.403755 
L 392.364935 95.887345 
L 399.611688 90.328232 
L 406.858442 84.719427 
L 414.105195 79.063143 
L 421.351948 73.363048 
L 428.598701 67.611669 
L 435.845455 61.82119 
" clip-path="url(#p05a324f5cb)" style="fill: none; stroke: #2ca02c; stroke-width: 1.5; stroke-linecap: square"/>
   </g>
   <g id="line2d_30">
    <path d="M 80.754545 279.700882 
L 88.001299 276.638709 
L 95.248052 273.506445 
L 102.494805 270.303858 
L 109.741558 267.031201 
L 116.988312 263.68678 
L 124.235065 260.270883 
L 131.481818 256.784749 
L 138.728571 253.228113 
L 145.975325 249.601471 
L 153.222078 245.906258 
L 160.468831 242.142125 
L 167.715584 238.310182 
L 174.962338 234.411958 
L 182.209091 230.448205 
L 189.455844 226.419251 
L 196.702597 222.324838 
L 203.949351 218.167181 
L 211.196104 213.947042 
L 218.442857 209.665197 
L 225.68961 205.322441 
L 232.936364 200.919592 
L 240.183117 196.457496 
L 247.42987 191.937024 
L 254.676623 187.357975 
L 261.923377 182.720261 
L 269.17013 178.026218 
L 276.416883 173.276794 
L 283.663636 168.472956 
L 290.91039 163.61568 
L 298.157143 158.70205 
L 305.403896 153.7341 
L 312.650649 148.714984 
L 319.897403 143.6457 
L 327.144156 138.52097 
L 334.390909 133.345404 
L 341.637662 128.122006 
L 348.884416 122.846595 
L 356.131169 117.52007 
L 363.377922 112.148051 
L 370.624675 106.724129 
L 377.871429 101.252174 
L 385.118182 95.736851 
L 392.364935 90.16679 
L 399.611688 84.554904 
L 406.858442 78.894548 
L 414.105195 73.18775 
L 421.351948 67.43808 
L 428.598701 61.638197 
L 435.845455 55.8 
" clip-path="url(#p05a324f5cb)" style="fill: none; stroke: #d62728; stroke-width: 1.5; stroke-linecap: square"/>
   </g>
   <g id="LineCollection_1">
    <path d="M 91.407273 289.185709 
L 91.407273 268.879211 
" clip-path="url(#p05a324f5cb)" style="fill: none; stroke: #008000; stroke-width: 1.5"/>
    <path d="M 100.876364 273.955835 
L 100.876364 260.418169 
" clip-path="url(#p05a324f5cb)" style="fill: none; stroke: #008000; stroke-width: 1.5"/>
    <path d="M 101.941636 277.340252 
L 101.941636 270.571419 
" clip-path="url(#p05a324f5cb)" style="fill: none; stroke: #008000; stroke-width: 1.5"/>
    <path d="M 104.308909 278.186356 
L 104.308909 269.725315 
" clip-path="url(#p05a324f5cb)" style="fill: none; stroke: #008000; stroke-width: 1.5"/>
    <path d="M 112.712727 284.109085 
L 112.712727 260.418169 
" clip-path="url(#p05a324f5cb)" style="fill: none; stroke: #008000; stroke-width: 1.5"/>
    <path d="M 122.418545 279.03246 
L 122.418545 255.341545 
" clip-path="url(#p05a324f5cb)" style="fill: none; stroke: #008000; stroke-width: 1.5"/>
    <path d="M 125.7564 278.609408 
L 125.7564 255.764597 
" clip-path="url(#p05a324f5cb)" style="fill: none; stroke: #008000; stroke-width: 1.5"/>
    <path d="M 128.1 271.417523 
L 128.1 242.649983 
" clip-path="url(#p05a324f5cb)" style="fill: none; stroke: #008000; stroke-width: 1.5"/>
    <path d="M 128.147345 280.893889 
L 128.147345 263.633365 
" clip-path="url(#p05a324f5cb)" style="fill: none; stroke: #008000; stroke-width: 1.5"/>
    <path d="M 131.023582 273.194342 
L 131.023582 254.241609 
" clip-path="url(#p05a324f5cb)" style="fill: none; stroke: #008000; stroke-width: 1.5"/>
    <path d="M 133.982673 269.809925 
L 133.982673 247.980439 
" clip-path="url(#p05a324f5cb)" style="fill: none; stroke: #008000; stroke-width: 1.5"/>
    <path d="M 137.367873 276.578758 
L 137.367873 261.348884 
" clip-path="url(#p05a324f5cb)" style="fill: none; stroke: #008000; stroke-width: 1.5"/>
    <path d="M 137.569091 307.8 
L 137.569091 202.883089 
" clip-path="url(#p05a324f5cb)" style="fill: none; stroke: #008000; stroke-width: 1.5"/>
    <path d="M 150.944182 260.418169 
L 150.944182 238.419462 
" clip-path="url(#p05a324f5cb)" style="fill: none; stroke: #008000; stroke-width: 1.5"/>
    <path d="M 161.241818 266.340898 
L 161.241818 252.803232 
" clip-path="url(#p05a324f5cb)" style="fill: none; stroke: #008000; stroke-width: 1.5"/>
    <path d="M 173.196545 258.725961 
L 173.196545 238.419462 
" clip-path="url(#p05a324f5cb)" style="fill: none; stroke: #008000; stroke-width: 1.5"/>
    <path d="M 184.322727 246.034399 
L 184.322727 217.266859 
" clip-path="url(#p05a324f5cb)" style="fill: none; stroke: #008000; stroke-width: 1.5"/>
    <path d="M 184.914545 295.108438 
L 184.914545 227.420109 
" clip-path="url(#p05a324f5cb)" style="fill: none; stroke: #008000; stroke-width: 1.5"/>
    <path d="M 187.281818 257.879857 
L 187.281818 218.959067 
" clip-path="url(#p05a324f5cb)" style="fill: none; stroke: #008000; stroke-width: 1.5"/>
    <path d="M 203.497636 224.035692 
L 203.497636 190.191527 
" clip-path="url(#p05a324f5cb)" style="fill: none; stroke: #008000; stroke-width: 1.5"/>
    <path d="M 234.627273 209.651922 
L 234.627273 180.884382 
" clip-path="url(#p05a324f5cb)" style="fill: none; stroke: #008000; stroke-width: 1.5"/>
    <path d="M 242.084182 230.466083 
L 242.084182 173.607887 
" clip-path="url(#p05a324f5cb)" style="fill: none; stroke: #008000; stroke-width: 1.5"/>
    <path d="M 250.014545 202.883089 
L 250.014545 172.423341 
" clip-path="url(#p05a324f5cb)" style="fill: none; stroke: #008000; stroke-width: 1.5"/>
    <path d="M 261.850909 230.804525 
L 261.850909 207.11361 
" clip-path="url(#p05a324f5cb)" style="fill: none; stroke: #008000; stroke-width: 1.5"/>
    <path d="M 287.890909 200.344777 
L 287.890909 132.656447 
" clip-path="url(#p05a324f5cb)" style="fill: none; stroke: #008000; stroke-width: 1.5"/>
    <path d="M 313.339091 222.258874 
L 313.339091 136.971578 
" clip-path="url(#p05a324f5cb)" style="fill: none; stroke: #008000; stroke-width: 1.5"/>
   </g>
   <g id="line2d_31">
    <defs>
     <path id="m3aa1b6c3a1" d="M 0 3 
C 0.795609 3 1.55874 2.683901 2.12132 2.12132 
C 2.683901 1.55874 3 0.795609 3 0 
C 3 -0.795609 2.683901 -1.55874 2.12132 -2.12132 
C 1.55874 -2.683901 0.795609 -3 0 -3 
C -0.795609 -3 -1.55874 -2.683901 -2.12132 -2.12132 
C -2.683901 -1.55874 -3 -0.795609 -3 0 
C -3 0.795609 -2.683901 1.55874 -2.12132 2.12132 
C -1.55874 2.683901 -0.795609 3 0 3 
z
" style="stroke: #008000"/>
    </defs>
    <g clip-path="url(#p05a324f5cb)">
     <use xlink:href="#m3aa1b6c3a1" x="91.407273" y="279.03246" style="fill: #008000; stroke: #008000"/>
     <use xlink:href="#m3aa1b6c3a1" x="100.876364" y="267.187002" style="fill: #008000; stroke: #008000"/>
     <use xlink:href="#m3aa1b6c3a1" x="101.941636" y="273.955835" style="fill: #008000; stroke: #008000"/>
     <use xlink:href="#m3aa1b6c3a1" x="104.308909" y="273.955835" style="fill: #008000; stroke: #008000"/>
     <use xlink:href="#m3aa1b6c3a1" x="112.712727" y="272.263627" style="fill: #008000; stroke: #008000"/>
     <use xlink:href="#m3aa1b6c3a1" x="122.418545" y="267.187002" style="fill: #008000; stroke: #008000"/>
     <use xlink:href="#m3aa1b6c3a1" x="125.7564" y="267.187002" style="fill: #008000; stroke: #008000"/>
     <use xlink:href="#m3aa1b6c3a1" x="128.1" y="257.033753" style="fill: #008000; stroke: #008000"/>
     <use xlink:href="#m3aa1b6c3a1" x="128.147345" y="272.263627" style="fill: #008000; stroke: #008000"/>
     <use xlink:href="#m3aa1b6c3a1" x="131.023582" y="263.717975" style="fill: #008000; stroke: #008000"/>
     <use xlink:href="#m3aa1b6c3a1" x="133.982673" y="258.895182" style="fill: #008000; stroke: #008000"/>
     <use xlink:href="#m3aa1b6c3a1" x="137.367873" y="268.963821" style="fill: #008000; stroke: #008000"/>
     <use xlink:href="#m3aa1b6c3a1" x="137.569091" y="255.341545" style="fill: #008000; stroke: #008000"/>
     <use xlink:href="#m3aa1b6c3a1" x="150.944182" y="249.418816" style="fill: #008000; stroke: #008000"/>
     <use xlink:href="#m3aa1b6c3a1" x="161.241818" y="259.572065" style="fill: #008000; stroke: #008000"/>
     <use xlink:href="#m3aa1b6c3a1" x="173.196545" y="248.572712" style="fill: #008000; stroke: #008000"/>
     <use xlink:href="#m3aa1b6c3a1" x="184.322727" y="231.650629" style="fill: #008000; stroke: #008000"/>
     <use xlink:href="#m3aa1b6c3a1" x="184.914545" y="261.264273" style="fill: #008000; stroke: #008000"/>
     <use xlink:href="#m3aa1b6c3a1" x="187.281818" y="238.419462" style="fill: #008000; stroke: #008000"/>
     <use xlink:href="#m3aa1b6c3a1" x="203.497636" y="207.11361" style="fill: #008000; stroke: #008000"/>
     <use xlink:href="#m3aa1b6c3a1" x="234.627273" y="195.268152" style="fill: #008000; stroke: #008000"/>
     <use xlink:href="#m3aa1b6c3a1" x="242.084182" y="202.036985" style="fill: #008000; stroke: #008000"/>
     <use xlink:href="#m3aa1b6c3a1" x="250.014545" y="187.653215" style="fill: #008000; stroke: #008000"/>
     <use xlink:href="#m3aa1b6c3a1" x="261.850909" y="218.959067" style="fill: #008000; stroke: #008000"/>
     <use xlink:href="#m3aa1b6c3a1" x="287.890909" y="166.500612" style="fill: #008000; stroke: #008000"/>
     <use xlink:href="#m3aa1b6c3a1" x="313.339091" y="179.615226" style="fill: #008000; stroke: #008000"/>
    </g>
   </g>
   <g id="patch_3">
    <path d="M 63 320.4 
L 63 43.2 
" style="fill: none; stroke: #000000; stroke-width: 0.8; stroke-linejoin: miter; stroke-linecap: square"/>
   </g>
   <g id="patch_4">
    <path d="M 453.6 320.4 
L 453.6 43.2 
" style="fill: none; stroke: #000000; stroke-width: 0.8; stroke-linejoin: miter; stroke-linecap: square"/>
   </g>
   <g id="patch_5">
    <path d="M 63 320.4 
L 453.6 320.4 
" style="fill: none; stroke: #000000; stroke-width: 0.8; stroke-linejoin: miter; stroke-linecap: square"/>
   </g>
   <g id="patch_6">
    <path d="M 63 43.2 
L 453.6 43.2 
" style="fill: none; stroke: #000000; stroke-width: 0.8; stroke-linejoin: miter; stroke-linecap: square"/>
   </g>
   <g id="text_16">
    <!-- HDE -->
    <g transform="translate(245.376563 37.2) scale(0.12 -0.12)">
     <defs>
      <path id="DejaVuSans-48" d="M 628 4666 
L 1259 4666 
L 1259 2753 
L 3553 2753 
L 3553 4666 
L 4184 4666 
L 4184 0 
L 3553 0 
L 3553 2222 
L 1259 2222 
L 1259 0 
L 628 0 
L 628 4666 
z
" transform="scale(0.015625)"/>
      <path id="DejaVuSans-44" d="M 1259 4147 
L 1259 519 
L 2022 519 
Q 2988 519 3436 956 
Q 3884 1394 3884 2338 
Q 3884 3275 3436 3711 
Q 2988 4147 2022 4147 
L 1259 4147 
z
M 628 4666 
L 1925 4666 
Q 3281 4666 3915 4102 
Q 4550 3538 4550 2338 
Q 4550 1131 3912 565 
Q 3275 0 1925 0 
L 628 0 
L 628 4666 
z
" transform="scale(0.015625)"/>
      <path id="DejaVuSans-45" d="M 628 4666 
L 3578 4666 
L 3578 4134 
L 1259 4134 
L 1259 2753 
L 3481 2753 
L 3481 2222 
L 1259 2222 
L 1259 531 
L 3634 531 
L 3634 0 
L 628 0 
L 628 4666 
z
" transform="scale(0.015625)"/>
     </defs>
     <use xlink:href="#DejaVuSans-48"/>
     <use xlink:href="#DejaVuSans-44" x="75.195312"/>
     <use xlink:href="#DejaVuSans-45" x="152.197266"/>
    </g>
   </g>
   <g id="legend_1">
    <g id="patch_7">
     <path d="M 70 109.9125 
L 138.1375 109.9125 
Q 140.1375 109.9125 140.1375 107.9125 
L 140.1375 50.2 
Q 140.1375 48.2 138.1375 48.2 
L 70 48.2 
Q 68 48.2 68 50.2 
L 68 107.9125 
Q 68 109.9125 70 109.9125 
z
" style="fill: #ffffff; opacity: 0.8; stroke: #cccccc; stroke-linejoin: miter"/>
    </g>
    <g id="line2d_32">
     <path d="M 72 56.298437 
L 82 56.298437 
L 92 56.298437 
" style="fill: none; stroke: #1f77b4; stroke-width: 1.5; stroke-linecap: square"/>
    </g>
    <g id="text_17">
     <!-- c = 0.5 -->
     <g transform="translate(100 59.798437) scale(0.1 -0.1)">
      <defs>
       <path id="DejaVuSans-63" d="M 3122 3366 
L 3122 2828 
Q 2878 2963 2633 3030 
Q 2388 3097 2138 3097 
Q 1578 3097 1268 2742 
Q 959 2388 959 1747 
Q 959 1106 1268 751 
Q 1578 397 2138 397 
Q 2388 397 2633 464 
Q 2878 531 3122 666 
L 3122 134 
Q 2881 22 2623 -34 
Q 2366 -91 2075 -91 
Q 1284 -91 818 406 
Q 353 903 353 1747 
Q 353 2603 823 3093 
Q 1294 3584 2113 3584 
Q 2378 3584 2631 3529 
Q 2884 3475 3122 3366 
z
" transform="scale(0.015625)"/>
       <path id="DejaVuSans-3d" d="M 678 2906 
L 4684 2906 
L 4684 2381 
L 678 2381 
L 678 2906 
z
M 678 1631 
L 4684 1631 
L 4684 1100 
L 678 1100 
L 678 1631 
z
" transform="scale(0.015625)"/>
      </defs>
      <use xlink:href="#DejaVuSans-63"/>
      <use xlink:href="#DejaVuSans-20" x="54.980469"/>
      <use xlink:href="#DejaVuSans-3d" x="86.767578"/>
      <use xlink:href="#DejaVuSans-20" x="170.556641"/>
      <use xlink:href="#DejaVuSans-30" x="202.34375"/>
      <use xlink:href="#DejaVuSans-2e" x="265.966797"/>
      <use xlink:href="#DejaVuSans-35" x="297.753906"/>
     </g>
    </g>
    <g id="line2d_33">
     <path d="M 72 70.976562 
L 82 70.976562 
L 92 70.976562 
" style="fill: none; stroke: #ff7f0e; stroke-width: 1.5; stroke-linecap: square"/>
    </g>
    <g id="text_18">
     <!-- c = 1.0 -->
     <g transform="translate(100 74.476562) scale(0.1 -0.1)">
      <use xlink:href="#DejaVuSans-63"/>
      <use xlink:href="#DejaVuSans-20" x="54.980469"/>
      <use xlink:href="#DejaVuSans-3d" x="86.767578"/>
      <use xlink:href="#DejaVuSans-20" x="170.556641"/>
      <use xlink:href="#DejaVuSans-31" x="202.34375"/>
      <use xlink:href="#DejaVuSans-2e" x="265.966797"/>
      <use xlink:href="#DejaVuSans-30" x="297.753906"/>
     </g>
    </g>
    <g id="line2d_34">
     <path d="M 72 85.654687 
L 82 85.654687 
L 92 85.654687 
" style="fill: none; stroke: #2ca02c; stroke-width: 1.5; stroke-linecap: square"/>
    </g>
    <g id="text_19">
     <!-- c = 1.5 -->
     <g transform="translate(100 89.154687) scale(0.1 -0.1)">
      <use xlink:href="#DejaVuSans-63"/>
      <use xlink:href="#DejaVuSans-20" x="54.980469"/>
      <use xlink:href="#DejaVuSans-3d" x="86.767578"/>
      <use xlink:href="#DejaVuSans-20" x="170.556641"/>
      <use xlink:href="#DejaVuSans-31" x="202.34375"/>
      <use xlink:href="#DejaVuSans-2e" x="265.966797"/>
      <use xlink:href="#DejaVuSans-35" x="297.753906"/>
     </g>
    </g>
    <g id="line2d_35">
     <path d="M 72 100.332812 
L 82 100.332812 
L 92 100.332812 
" style="fill: none; stroke: #d62728; stroke-width: 1.5; stroke-linecap: square"/>
    </g>
    <g id="text_20">
     <!-- c = 2.0 -->
     <g transform="translate(100 103.832812) scale(0.1 -0.1)">
      <use xlink:href="#DejaVuSans-63"/>
      <use xlink:href="#DejaVuSans-20" x="54.980469"/>
      <use xlink:href="#DejaVuSans-3d" x="86.767578"/>
      <use xlink:href="#DejaVuSans-20" x="170.556641"/>
      <use xlink:href="#DejaVuSans-32" x="202.34375"/>
      <use xlink:href="#DejaVuSans-2e" x="265.966797"/>
      <use xlink:href="#DejaVuSans-30" x="297.753906"/>
     </g>
    </g>
   </g>
  </g>
 </g>
 <defs>
  <clipPath id="p05a324f5cb">
   <rect x="63" y="43.2" width="390.6" height="277.2"/>
  </clipPath>
 </defs>
</svg>
